<mxfile host="app.diagrams.net" modified="2020-11-19T12:37:24.635Z" agent="5.0 (X11)" etag="qhL64uRwTmE5abhXpmBH" version="13.10.0" type="github">
  <diagram id="C5RBs43oDa-KdzZeNtuy" name="Page-1">
    <mxGraphModel dx="2249" dy="781" grid="1" gridSize="10" guides="1" tooltips="1" connect="1" arrows="1" fold="1" page="1" pageScale="1" pageWidth="827" pageHeight="1169" math="0" shadow="0">
      <root>
        <mxCell id="WIyWlLk6GJQsqaUBKTNV-0" />
        <mxCell id="WIyWlLk6GJQsqaUBKTNV-1" parent="WIyWlLk6GJQsqaUBKTNV-0" />
        <mxCell id="WIyWlLk6GJQsqaUBKTNV-2" value="" style="rounded=0;html=1;jettySize=auto;orthogonalLoop=1;fontSize=11;endArrow=block;endFill=0;endSize=8;strokeWidth=1;shadow=0;labelBackgroundColor=none;edgeStyle=orthogonalEdgeStyle;entryX=0.5;entryY=0;entryDx=0;entryDy=0;" parent="WIyWlLk6GJQsqaUBKTNV-1" source="WIyWlLk6GJQsqaUBKTNV-3" target="a07uq0I9f7022rg5gR0u-1" edge="1">
          <mxGeometry relative="1" as="geometry">
            <mxPoint x="200" y="120" as="targetPoint" />
          </mxGeometry>
        </mxCell>
        <mxCell id="WIyWlLk6GJQsqaUBKTNV-3" value="KomutayÄ± Al" style="rounded=1;whiteSpace=wrap;html=1;fontSize=12;glass=0;strokeWidth=1;shadow=0;" parent="WIyWlLk6GJQsqaUBKTNV-1" vertex="1">
          <mxGeometry x="165" y="80" width="80" height="20" as="geometry" />
        </mxCell>
        <mxCell id="a07uq0I9f7022rg5gR0u-11" value="" style="edgeStyle=orthogonalEdgeStyle;rounded=0;orthogonalLoop=1;jettySize=auto;html=1;" edge="1" parent="WIyWlLk6GJQsqaUBKTNV-1" source="a07uq0I9f7022rg5gR0u-1" target="a07uq0I9f7022rg5gR0u-10">
          <mxGeometry relative="1" as="geometry" />
        </mxCell>
        <mxCell id="a07uq0I9f7022rg5gR0u-27" value="" style="edgeStyle=orthogonalEdgeStyle;rounded=0;orthogonalLoop=1;jettySize=auto;html=1;" edge="1" parent="WIyWlLk6GJQsqaUBKTNV-1" source="a07uq0I9f7022rg5gR0u-1" target="a07uq0I9f7022rg5gR0u-26">
          <mxGeometry relative="1" as="geometry" />
        </mxCell>
        <mxCell id="a07uq0I9f7022rg5gR0u-1" value="&lt;font style=&quot;font-size: 10px&quot;&gt;S: kontrolAlmaTalebi&lt;/font&gt;" style="ellipse;whiteSpace=wrap;html=1;" vertex="1" parent="WIyWlLk6GJQsqaUBKTNV-1">
          <mxGeometry x="140" y="120" width="130" height="30" as="geometry" />
        </mxCell>
        <mxCell id="a07uq0I9f7022rg5gR0u-13" value="" style="edgeStyle=orthogonalEdgeStyle;rounded=0;orthogonalLoop=1;jettySize=auto;html=1;" edge="1" parent="WIyWlLk6GJQsqaUBKTNV-1" source="a07uq0I9f7022rg5gR0u-10" target="a07uq0I9f7022rg5gR0u-12">
          <mxGeometry relative="1" as="geometry" />
        </mxCell>
        <mxCell id="a07uq0I9f7022rg5gR0u-10" value="D: 500ms" style="shape=step;perimeter=stepPerimeter;whiteSpace=wrap;html=1;fixedSize=1;" vertex="1" parent="WIyWlLk6GJQsqaUBKTNV-1">
          <mxGeometry x="145" y="170" width="120" height="20" as="geometry" />
        </mxCell>
        <mxCell id="a07uq0I9f7022rg5gR0u-15" value="" style="edgeStyle=orthogonalEdgeStyle;rounded=0;orthogonalLoop=1;jettySize=auto;html=1;" edge="1" parent="WIyWlLk6GJQsqaUBKTNV-1" source="a07uq0I9f7022rg5gR0u-12" target="a07uq0I9f7022rg5gR0u-14">
          <mxGeometry relative="1" as="geometry" />
        </mxCell>
        <mxCell id="a07uq0I9f7022rg5gR0u-35" value="" style="edgeStyle=orthogonalEdgeStyle;rounded=0;orthogonalLoop=1;jettySize=auto;html=1;" edge="1" parent="WIyWlLk6GJQsqaUBKTNV-1" source="a07uq0I9f7022rg5gR0u-12" target="a07uq0I9f7022rg5gR0u-34">
          <mxGeometry relative="1" as="geometry" />
        </mxCell>
        <mxCell id="a07uq0I9f7022rg5gR0u-12" value="&lt;pre style=&quot;margin: 0px ; text-indent: 0px ; font-size: 9px&quot;&gt;TelsizTipi &lt;span style=&quot;color: #c678dd&quot;&gt;==&lt;/span&gt; telsizTipiVUHFE&lt;/pre&gt;" style="rhombus;whiteSpace=wrap;html=1;" vertex="1" parent="WIyWlLk6GJQsqaUBKTNV-1">
          <mxGeometry x="102.5" y="210" width="205" height="50" as="geometry" />
        </mxCell>
        <mxCell id="a07uq0I9f7022rg5gR0u-20" value="" style="edgeStyle=orthogonalEdgeStyle;rounded=0;orthogonalLoop=1;jettySize=auto;html=1;" edge="1" parent="WIyWlLk6GJQsqaUBKTNV-1" source="a07uq0I9f7022rg5gR0u-14" target="a07uq0I9f7022rg5gR0u-19">
          <mxGeometry relative="1" as="geometry" />
        </mxCell>
        <mxCell id="a07uq0I9f7022rg5gR0u-23" value="" style="edgeStyle=orthogonalEdgeStyle;rounded=0;orthogonalLoop=1;jettySize=auto;html=1;" edge="1" parent="WIyWlLk6GJQsqaUBKTNV-1" source="a07uq0I9f7022rg5gR0u-14" target="a07uq0I9f7022rg5gR0u-22">
          <mxGeometry relative="1" as="geometry" />
        </mxCell>
        <mxCell id="a07uq0I9f7022rg5gR0u-14" value="&lt;font style=&quot;font-size: 9px&quot;&gt;vuhfSoftwareDetectFlagCheck&lt;/font&gt;" style="rhombus;whiteSpace=wrap;html=1;" vertex="1" parent="WIyWlLk6GJQsqaUBKTNV-1">
          <mxGeometry x="102.5" y="280" width="205" height="40" as="geometry" />
        </mxCell>
        <mxCell id="a07uq0I9f7022rg5gR0u-17" value="No" style="text;html=1;strokeColor=none;fillColor=none;align=center;verticalAlign=middle;whiteSpace=wrap;rounded=0;" vertex="1" parent="WIyWlLk6GJQsqaUBKTNV-1">
          <mxGeometry x="62.5" y="210" width="40" height="20" as="geometry" />
        </mxCell>
        <mxCell id="a07uq0I9f7022rg5gR0u-18" value="Yes" style="text;html=1;strokeColor=none;fillColor=none;align=center;verticalAlign=middle;whiteSpace=wrap;rounded=0;" vertex="1" parent="WIyWlLk6GJQsqaUBKTNV-1">
          <mxGeometry x="205" y="260" width="40" height="20" as="geometry" />
        </mxCell>
        <mxCell id="a07uq0I9f7022rg5gR0u-19" value="&lt;font style=&quot;font-size: 11px&quot;&gt;&lt;font style=&quot;font-size: 11px&quot;&gt;vuhfSoftwareDetectFlag &lt;span style=&quot;color: #c678dd&quot;&gt;==&lt;/span&gt; &lt;span style=&quot;color: #c678dd&quot;&gt;&lt;/span&gt;&lt;/font&gt;&lt;br&gt;&lt;span style=&quot;color: #c678dd&quot;&gt;&lt;/span&gt;&lt;/font&gt;&lt;pre style=&quot;margin: 0px ; text-indent: 0px ; font-size: 8px&quot;&gt;&lt;font style=&quot;font-size: 8px&quot;&gt;&lt;span style=&quot;color: #c678dd&quot;&gt;VUHFSOFTWAREVERSION_TYPE_NOTSET&lt;/span&gt;&lt;/font&gt;&lt;/pre&gt;" style="rhombus;whiteSpace=wrap;html=1;" vertex="1" parent="WIyWlLk6GJQsqaUBKTNV-1">
          <mxGeometry x="101.25" y="350" width="207.5" height="110" as="geometry" />
        </mxCell>
        <mxCell id="a07uq0I9f7022rg5gR0u-21" value="False" style="text;html=1;strokeColor=none;fillColor=none;align=center;verticalAlign=middle;whiteSpace=wrap;rounded=0;" vertex="1" parent="WIyWlLk6GJQsqaUBKTNV-1">
          <mxGeometry x="205" y="320" width="40" height="20" as="geometry" />
        </mxCell>
        <mxCell id="a07uq0I9f7022rg5gR0u-31" value="" style="edgeStyle=orthogonalEdgeStyle;rounded=0;orthogonalLoop=1;jettySize=auto;html=1;" edge="1" parent="WIyWlLk6GJQsqaUBKTNV-1" source="a07uq0I9f7022rg5gR0u-22" target="a07uq0I9f7022rg5gR0u-30">
          <mxGeometry relative="1" as="geometry" />
        </mxCell>
        <mxCell id="a07uq0I9f7022rg5gR0u-22" value="&lt;font style=&quot;font-size: 11px&quot;&gt;&lt;font style=&quot;font-size: 11px&quot;&gt;vuhfSoftwareDetectFlag &lt;span style=&quot;color: #c678dd&quot;&gt;==&lt;/span&gt; &lt;span style=&quot;color: #c678dd&quot;&gt;&lt;/span&gt;&lt;/font&gt;&lt;br&gt;&lt;span style=&quot;color: #c678dd&quot;&gt;&lt;/span&gt;&lt;/font&gt;&lt;pre style=&quot;margin: 0px ; text-indent: 0px ; font-size: 8px&quot;&gt;&lt;font style=&quot;font-size: 8px&quot;&gt;&lt;span style=&quot;color: #c678dd&quot;&gt;VUHFSOFTWAREVERSION_TYPE_NEWER&lt;/span&gt;&lt;/font&gt;&lt;/pre&gt;" style="rhombus;whiteSpace=wrap;html=1;" vertex="1" parent="WIyWlLk6GJQsqaUBKTNV-1">
          <mxGeometry x="353.13" y="250" width="205" height="100" as="geometry" />
        </mxCell>
        <mxCell id="a07uq0I9f7022rg5gR0u-24" value="True" style="text;html=1;strokeColor=none;fillColor=none;align=center;verticalAlign=middle;whiteSpace=wrap;rounded=0;" vertex="1" parent="WIyWlLk6GJQsqaUBKTNV-1">
          <mxGeometry x="308.75" y="280" width="40" height="20" as="geometry" />
        </mxCell>
        <mxCell id="a07uq0I9f7022rg5gR0u-25" value="&lt;div align=&quot;left&quot;&gt;S: Sorgu&lt;br&gt;D: Delay&lt;br&gt;F: Flag&lt;br&gt;&lt;/div&gt;&lt;div align=&quot;left&quot;&gt;C:Cevap&lt;/div&gt;&lt;div align=&quot;left&quot;&gt;&lt;br&gt;&lt;/div&gt;" style="text;html=1;align=left;verticalAlign=middle;resizable=0;points=[];autosize=1;" vertex="1" parent="WIyWlLk6GJQsqaUBKTNV-1">
          <mxGeometry x="6.25" width="70" height="80" as="geometry" />
        </mxCell>
        <mxCell id="a07uq0I9f7022rg5gR0u-29" value="" style="edgeStyle=orthogonalEdgeStyle;rounded=0;orthogonalLoop=1;jettySize=auto;html=1;" edge="1" parent="WIyWlLk6GJQsqaUBKTNV-1" source="a07uq0I9f7022rg5gR0u-26" target="a07uq0I9f7022rg5gR0u-28">
          <mxGeometry relative="1" as="geometry" />
        </mxCell>
        <mxCell id="a07uq0I9f7022rg5gR0u-26" value="&lt;font style=&quot;font-size: 11px&quot;&gt;C: KontrolAlmaGeldi&lt;/font&gt;" style="whiteSpace=wrap;html=1;" vertex="1" parent="WIyWlLk6GJQsqaUBKTNV-1">
          <mxGeometry x="387.5" y="122.5" width="120" height="25" as="geometry" />
        </mxCell>
        <mxCell id="a07uq0I9f7022rg5gR0u-28" value="&lt;font style=&quot;font-size: 7px&quot;&gt;&lt;span style=&quot;color: #56b6c2&quot;&gt;MainWidget&lt;/span&gt;::vuhfSoftwareDetectFlagCheck&lt;span style=&quot;color: #c678dd&quot;&gt;=&lt;/span&gt;&lt;span style=&quot;color: #c678dd&quot;&gt;true&lt;/span&gt;;&lt;/font&gt;&lt;font style=&quot;font-size: 9px&quot;&gt;&lt;span style=&quot;color: #56b6c2&quot;&gt;&lt;br&gt;MainWidget&lt;/span&gt;::vuhfSoftwareDetectFlag&lt;span style=&quot;color: #c678dd&quot;&gt;=&lt;/span&gt;&lt;/font&gt;&lt;br&gt;&lt;pre style=&quot;margin: 0px ; text-indent: 0px ; font-size: 7px&quot;&gt;&lt;font style=&quot;font-size: 7px&quot;&gt; &lt;span style=&quot;color: #c678dd&quot;&gt;VUHFSOFTWAREVERSION_TYPE_NEWER&lt;/span&gt;;&lt;/font&gt;&lt;/pre&gt;" style="whiteSpace=wrap;html=1;" vertex="1" parent="WIyWlLk6GJQsqaUBKTNV-1">
          <mxGeometry x="353.13" y="170" width="188.75" height="50" as="geometry" />
        </mxCell>
        <mxCell id="a07uq0I9f7022rg5gR0u-30" value="&lt;font style=&quot;font-size: 11px&quot;&gt;&lt;span style=&quot;color: #98c379&quot;&gt;&quot;Komuta&lt;/span&gt; &lt;span style=&quot;color: #98c379&quot;&gt;alÄ±nÄ±yor.&lt;/span&gt;&lt;/font&gt;&lt;br&gt;&lt;font style=&quot;font-size: 11px&quot;&gt;&lt;span style=&quot;color: #98c379&quot;&gt;&lt;/span&gt;&lt;/font&gt;&lt;pre style=&quot;margin: 0px ; text-indent: 0px ; font-size: 11px&quot;&gt;&lt;font style=&quot;font-size: 11px&quot;&gt;&lt;span style=&quot;color: #98c379&quot;&gt;LÃ¼tfen&lt;/span&gt; &lt;span style=&quot;color: #98c379&quot;&gt;Bekleyiniz.&quot;&lt;/span&gt;&lt;/font&gt;&lt;/pre&gt;" style="shape=tape;whiteSpace=wrap;html=1;strokeWidth=2;size=0.19" vertex="1" parent="WIyWlLk6GJQsqaUBKTNV-1">
          <mxGeometry x="388.44" y="370" width="134.37" height="55" as="geometry" />
        </mxCell>
        <mxCell id="a07uq0I9f7022rg5gR0u-33" value="True" style="text;html=1;strokeColor=none;fillColor=none;align=center;verticalAlign=middle;whiteSpace=wrap;rounded=0;" vertex="1" parent="WIyWlLk6GJQsqaUBKTNV-1">
          <mxGeometry x="460" y="350" width="40" height="20" as="geometry" />
        </mxCell>
        <mxCell id="a07uq0I9f7022rg5gR0u-47" value="" style="edgeStyle=orthogonalEdgeStyle;rounded=0;orthogonalLoop=1;jettySize=auto;html=1;" edge="1" parent="WIyWlLk6GJQsqaUBKTNV-1" source="a07uq0I9f7022rg5gR0u-34" target="a07uq0I9f7022rg5gR0u-43">
          <mxGeometry relative="1" as="geometry" />
        </mxCell>
        <mxCell id="a07uq0I9f7022rg5gR0u-34" value="&lt;pre style=&quot;margin: 0px ; text-indent: 0px ; font-size: 9px&quot;&gt;TelsizTipi &lt;span style=&quot;color: #c678dd&quot;&gt;==&lt;/span&gt; telsizTipiVUHFDenizE&lt;/pre&gt;" style="rhombus;whiteSpace=wrap;html=1;" vertex="1" parent="WIyWlLk6GJQsqaUBKTNV-1">
          <mxGeometry x="-170" y="210" width="232.5" height="50" as="geometry" />
        </mxCell>
        <mxCell id="a07uq0I9f7022rg5gR0u-38" value="&lt;div&gt;Yes&lt;/div&gt;&lt;div&gt;&lt;br&gt;&lt;/div&gt;" style="text;html=1;align=center;verticalAlign=middle;resizable=0;points=[];autosize=1;" vertex="1" parent="WIyWlLk6GJQsqaUBKTNV-1">
          <mxGeometry x="-35" y="270" width="40" height="30" as="geometry" />
        </mxCell>
        <mxCell id="a07uq0I9f7022rg5gR0u-48" value="" style="edgeStyle=orthogonalEdgeStyle;rounded=0;orthogonalLoop=1;jettySize=auto;html=1;" edge="1" parent="WIyWlLk6GJQsqaUBKTNV-1" source="a07uq0I9f7022rg5gR0u-43" target="a07uq0I9f7022rg5gR0u-44">
          <mxGeometry relative="1" as="geometry" />
        </mxCell>
        <mxCell id="a07uq0I9f7022rg5gR0u-43" value="&lt;font style=&quot;font-size: 10px&quot;&gt;S: kontrolAlmaTalebi&lt;/font&gt;" style="ellipse;whiteSpace=wrap;html=1;" vertex="1" parent="WIyWlLk6GJQsqaUBKTNV-1">
          <mxGeometry x="-118.75" y="285" width="130" height="30" as="geometry" />
        </mxCell>
        <mxCell id="a07uq0I9f7022rg5gR0u-51" value="" style="edgeStyle=orthogonalEdgeStyle;rounded=0;orthogonalLoop=1;jettySize=auto;html=1;entryX=0.5;entryY=0;entryDx=0;entryDy=0;" edge="1" parent="WIyWlLk6GJQsqaUBKTNV-1" source="a07uq0I9f7022rg5gR0u-44" target="a07uq0I9f7022rg5gR0u-26">
          <mxGeometry relative="1" as="geometry">
            <mxPoint x="360" y="10" as="targetPoint" />
            <Array as="points">
              <mxPoint x="-180" y="370" />
              <mxPoint x="-180" y="70" />
              <mxPoint x="448" y="70" />
            </Array>
          </mxGeometry>
        </mxCell>
        <mxCell id="a07uq0I9f7022rg5gR0u-44" value="D: 500ms" style="shape=step;perimeter=stepPerimeter;whiteSpace=wrap;html=1;fixedSize=1;" vertex="1" parent="WIyWlLk6GJQsqaUBKTNV-1">
          <mxGeometry x="-113.75" y="340" width="120" height="20" as="geometry" />
        </mxCell>
      </root>
    </mxGraphModel>
  </diagram>
</mxfile>
